<svg xmlns="http://www.w3.org/2000/svg" width="42.255" height="38.199" viewBox="0 0 42.255 38.199"><defs><style>.a{fill:#c5001f;}</style></defs><path class="a" d="M-4.225-46.767V-65.093h-7.854a15.271,15.271,0,0,1,1.666-7.437q1.666-3.035,6.188-4.581v-7.854a19.254,19.254,0,0,0-6.842,2.2,19.357,19.357,0,0,0-5.414,4.344,19.171,19.171,0,0,0-3.511,6.069,19.723,19.723,0,0,0-1.13,7.378v18.207Zm25.347,0V-65.093H13.268a15.271,15.271,0,0,1,1.666-7.437q1.666-3.035,6.188-4.581v-7.854a19.254,19.254,0,0,0-6.843,2.2,19.357,19.357,0,0,0-5.415,4.344,19.171,19.171,0,0,0-3.51,6.069,19.723,19.723,0,0,0-1.131,7.378v18.207Z" transform="translate(21.133 84.966)"/></svg>