<svg xmlns="http://www.w3.org/2000/svg" width="401.189" height="42.224" viewBox="0 0 401.189 42.224"><defs><style>.a,.b{fill:#fff}</style></defs><path class="a" d="M38.741 42.224H6.392A6.4 6.4 0 010 35.832V6.392A6.4 6.4 0 016.392 0h32.349a6.4 6.4 0 016.392 6.392v29.44a6.4 6.4 0 01-6.392 6.392zM6.392 3.633a2.762 2.762 0 00-2.759 2.759v29.44a2.762 2.762 0 002.759 2.759h32.349a2.762 2.762 0 002.759-2.759V6.392a2.762 2.762 0 00-2.759-2.759z"/><path class="a" d="M6.972 15.513a1.7 1.7 0 01-1.834-1.07c-.346-1.256 1.047-1.9 1.97-2.319l15.007-6.272 15.46 6.577c.57.165 2.014.6 1.82 1.852-.187 1.216-1.571 1.2-2.309 1.188H7.613a5.1 5.1 0 01-.641.044zm15.136-7.034l-10.947 4.574h21.7z"/><path class="a" d="M20.439 33.087H8.309v-18.8h2.43v16.371h9.7zM26.194 25.11a4.318 4.318 0 114.131-4.314 4.232 4.232 0 01-4.131 4.314zm0-7.013a2.706 2.706 0 102.517 2.7 2.615 2.615 0 00-2.517-2.7z"/><path class="a" d="M24.348 37.787a4.521 4.521 0 01-4.389-4.092l-.01-7.161c.323-2.762 3.266-4.068 3.6-4.208l.936 2.233-.468-1.117.472 1.115c-.512.219-2 1.079-2.128 2.121l.008 6.858a2.118 2.118 0 001.978 1.829h4.3a1.892 1.892 0 001.5-1.829v-7a1.793 1.793 0 00-1.784-1.882v-2.421a4.206 4.206 0 014.207 4.27v7.034a4.291 4.291 0 01-3.745 4.238zM33.182 14.292h2.421v2.996h-2.421z"/><path class="a" d="M35.388 34.729c-2.389 0-4.832-.642-4.832-5.4v-3c0-2.466 1.9-4.059 4.832-4.059 2.891 0 4.833 1.673 4.833 4.163v2.893c0 4.763-2.443 5.403-4.833 5.403zm0-10.838c-.968 0-3.217.238-3.217 2.444v3c0 3.5 1.394 3.782 3.217 3.782s3.219-.278 3.219-3.782v-2.893c0-1.882-1.662-2.553-3.219-2.553z"/><path class="a" d="M34.871 23.89a3.564 3.564 0 113.417-3.561 3.5 3.5 0 01-3.417 3.561zm0-5.508a1.952 1.952 0 101.8 1.947 1.882 1.882 0 00-1.8-1.947zM54.528 33.691V10.428h4.7v9.155h9.2v-9.155h4.7v23.263h-4.7V23.519h-9.2v10.172zM89.041 33.69v-2.523a6.5 6.5 0 01-2.42 2.127 6.787 6.787 0 01-3.166.778 6.179 6.179 0 01-3.046-.747 4.4 4.4 0 01-1.952-2.094 9.344 9.344 0 01-.6-3.729V16.838h4.46v7.744a21.406 21.406 0 00.246 4.355 2.376 2.376 0 00.9 1.27 2.758 2.758 0 001.65.468 3.514 3.514 0 002.048-.626 3.193 3.193 0 001.237-1.555 18.041 18.041 0 00.334-4.547v-7.109h4.458V33.69zM97.467 16.838h4.11v2.3a6.614 6.614 0 015.252-2.682 5.659 5.659 0 012.809.666 5.126 5.126 0 011.952 2.016 7.785 7.785 0 012.4-2.016 5.877 5.877 0 012.744-.666 6.116 6.116 0 013.142.753 4.612 4.612 0 011.92 2.214 9.6 9.6 0 01.46 3.491v10.775h-4.462v-9.632a7.175 7.175 0 00-.46-3.238 2.113 2.113 0 00-1.9-.952 3.035 3.035 0 00-1.761.572 3.165 3.165 0 00-1.191 1.673 12.089 12.089 0 00-.364 3.483v8.093h-4.459v-9.236a12.815 12.815 0 00-.238-3.174 2.027 2.027 0 00-.738-1.062 2.326 2.326 0 00-1.357-.349 3.24 3.24 0 00-1.856.555 3.043 3.043 0 00-1.183 1.6 11.887 11.887 0 00-.357 3.475v8.188h-4.459zM130.028 21.977l-4.047-.73a6.308 6.308 0 012.348-3.619 8.6 8.6 0 014.951-1.174 10.661 10.661 0 014.443.706 4.427 4.427 0 012.056 1.793 9.21 9.21 0 01.594 3.991l-.047 5.205a17.979 17.979 0 00.215 3.276 9.488 9.488 0 00.8 2.262h-4.413q-.175-.444-.429-1.317a8.045 8.045 0 00-.159-.525 8.023 8.023 0 01-2.443 1.666 7.007 7.007 0 01-2.778.556 5.741 5.741 0 01-4.1-1.413 4.692 4.692 0 01-1.5-3.57 4.786 4.786 0 01.683-2.547 4.455 4.455 0 011.912-1.714 14.98 14.98 0 013.546-1.039 24.2 24.2 0 004.332-1.1v-.444a2.311 2.311 0 00-.634-1.833 3.8 3.8 0 00-2.4-.547 3.187 3.187 0 00-1.856.468 3.246 3.246 0 00-1.074 1.649zm5.966 3.618q-.858.285-2.714.683a8.136 8.136 0 00-2.428.777 1.859 1.859 0 00-.873 1.571 2.183 2.183 0 00.7 1.618 2.434 2.434 0 001.777.683 3.859 3.859 0 002.3-.794 2.789 2.789 0 001.063-1.475 8.812 8.812 0 00.174-2.174zM160.1 33.69h-4.458v-8.6a13.312 13.312 0 00-.285-3.531 2.484 2.484 0 00-.928-1.246 2.659 2.659 0 00-1.548-.444 3.582 3.582 0 00-2.079.634 3.2 3.2 0 00-1.262 1.683 14.543 14.543 0 00-.342 3.872v7.633h-4.458V16.838h4.142v2.475a6.906 6.906 0 018.252-2.324 4.5 4.5 0 011.848 1.357 4.927 4.927 0 01.873 1.873 13.916 13.916 0 01.245 3z"/><g><path class="b" d="M172.495 26.122l4.57-.445a5.569 5.569 0 001.673 3.38 5.063 5.063 0 003.4 1.079 5.23 5.23 0 003.42-.96 2.854 2.854 0 001.15-2.245 2.121 2.121 0 00-.483-1.4 3.87 3.87 0 00-1.69-1.008q-.825-.285-3.761-1.016a12.749 12.749 0 01-5.3-2.3 6.051 6.051 0 01-2.142-4.681 5.976 5.976 0 011.008-3.324 6.3 6.3 0 012.9-2.357 11.632 11.632 0 014.578-.809q4.379 0 6.593 1.92a6.778 6.778 0 012.324 5.126l-4.7.206a3.989 3.989 0 00-1.294-2.578 4.735 4.735 0 00-2.975-.785 5.377 5.377 0 00-3.206.84 1.7 1.7 0 00-.745 1.444 1.787 1.787 0 00.7 1.413 12.362 12.362 0 004.316 1.554 22.892 22.892 0 015.071 1.675 6.549 6.549 0 012.57 2.365 7.325 7.325 0 01-.183 7.45 6.666 6.666 0 01-3.142 2.595 13.186 13.186 0 01-5.062.849q-4.412 0-6.776-2.039a8.869 8.869 0 01-2.814-5.949zM206.421 33.691v-2.523a6.5 6.5 0 01-2.42 2.127 6.783 6.783 0 01-3.166.778 6.183 6.183 0 01-3.047-.747 4.4 4.4 0 01-1.952-2.094 9.345 9.345 0 01-.6-3.729V16.839h4.46v7.744a21.473 21.473 0 00.245 4.355 2.377 2.377 0 00.9 1.27 2.757 2.757 0 001.65.468 3.514 3.514 0 002.048-.626 3.189 3.189 0 001.237-1.555 18.041 18.041 0 00.334-4.547v-7.109h4.459v16.852zM215.055 16.839h4.157v2.475a6.237 6.237 0 012.19-2.063 6.037 6.037 0 013.063-.793 6.424 6.424 0 014.982 2.3 9.313 9.313 0 012.047 6.411 9.591 9.591 0 01-2.063 6.561 6.427 6.427 0 01-5 2.341 5.682 5.682 0 01-2.531-.556 8.53 8.53 0 01-2.388-1.9v8.489h-4.458zm4.411 8.14a6.485 6.485 0 001.127 4.2 3.444 3.444 0 002.747 1.354 3.224 3.224 0 002.587-1.246 6.418 6.418 0 001.031-4.086 6.091 6.091 0 00-1.064-3.936 3.289 3.289 0 00-2.635-1.285 3.421 3.421 0 00-2.712 1.26 5.611 5.611 0 00-1.081 3.738zM234.906 16.839h4.157v2.475a6.237 6.237 0 012.19-2.063 6.036 6.036 0 013.062-.793 6.426 6.426 0 014.983 2.3 9.316 9.316 0 012.047 6.411 9.59 9.59 0 01-2.063 6.561 6.428 6.428 0 01-5 2.341 5.681 5.681 0 01-2.531-.556 8.521 8.521 0 01-2.388-1.9v8.489h-4.457zm4.411 8.14a6.485 6.485 0 001.127 4.2 3.444 3.444 0 002.744 1.357 3.224 3.224 0 002.587-1.246 6.418 6.418 0 001.031-4.086 6.091 6.091 0 00-1.064-3.936 3.289 3.289 0 00-2.635-1.285 3.422 3.422 0 00-2.713 1.26 5.614 5.614 0 00-1.078 3.735zM253.852 25.026a9.115 9.115 0 011.094-4.3 7.518 7.518 0 013.1-3.174 9.208 9.208 0 014.483-1.094 8.418 8.418 0 016.268 2.483 8.583 8.583 0 012.443 6.277 8.684 8.684 0 01-2.467 6.339 8.339 8.339 0 01-6.213 2.516 9.792 9.792 0 01-4.419-1.047 7.19 7.19 0 01-3.2-3.071 10.233 10.233 0 01-1.089-4.929zm4.57.238a5.582 5.582 0 001.19 3.84 3.89 3.89 0 005.864 0 5.661 5.661 0 001.182-3.872 5.557 5.557 0 00-1.182-3.808 3.89 3.89 0 00-5.864 0 5.584 5.584 0 00-1.19 3.84zM279.002 33.691h-4.458V16.839h4.142v2.4a7.188 7.188 0 011.912-2.237 3.516 3.516 0 011.928-.54 5.658 5.658 0 012.935.841l-1.381 3.887a3.913 3.913 0 00-2.094-.73 2.474 2.474 0 00-1.586.515 3.528 3.528 0 00-1.024 1.865 26.5 26.5 0 00-.373 5.649zM295.109 16.839v3.554h-3.047v6.791a16.882 16.882 0 00.087 2.4.983.983 0 00.4.564 1.264 1.264 0 00.754.222 5.765 5.765 0 001.793-.429l.381 3.46a8.88 8.88 0 01-3.523.666 5.594 5.594 0 01-2.174-.405 3.179 3.179 0 01-1.42-1.047 4.12 4.12 0 01-.626-1.737 21.544 21.544 0 01-.143-3.142v-7.347h-2.047v-3.554h2.047v-3.349l4.475-2.6v5.95z"/></g><g><path class="a" d="M318.103 25.138v-3.919h10.12v9.267a12.758 12.758 0 01-4.277 2.515 15.588 15.588 0 01-5.673 1.087 12.732 12.732 0 01-6.364-1.531 9.734 9.734 0 01-4.078-4.38 14.152 14.152 0 01-1.364-6.2 13.4 13.4 0 011.523-6.459 10.269 10.269 0 014.46-4.332 12.04 12.04 0 015.569-1.158 11.111 11.111 0 016.768 1.818 8.219 8.219 0 013.136 5.021l-4.668.873a4.924 4.924 0 00-1.848-2.706 5.594 5.594 0 00-3.388-.991 6.363 6.363 0 00-4.894 1.951q-1.817 1.952-1.816 5.792 0 4.142 1.841 6.213a6.15 6.15 0 004.824 2.071 8.108 8.108 0 002.958-.579 10.218 10.218 0 002.549-1.405v-2.951zM336.794 33.691h-4.459V16.839h4.142v2.4a7.172 7.172 0 011.912-2.237 3.514 3.514 0 011.928-.54 5.658 5.658 0 012.935.841l-1.38 3.887a3.91 3.91 0 00-2.094-.73 2.482 2.482 0 00-1.587.515 3.523 3.523 0 00-1.022 1.865 26.423 26.423 0 00-.373 5.649zM344.142 25.026a9.122 9.122 0 011.094-4.3 7.512 7.512 0 013.1-3.174 9.208 9.208 0 014.482-1.094 8.418 8.418 0 016.269 2.483 8.588 8.588 0 012.444 6.277 8.688 8.688 0 01-2.467 6.339 8.339 8.339 0 01-6.212 2.516 9.793 9.793 0 01-4.42-1.047 7.19 7.19 0 01-3.2-3.071 10.24 10.24 0 01-1.09-4.929zm4.571.238a5.585 5.585 0 001.189 3.84 3.889 3.889 0 005.862 0 5.655 5.655 0 001.183-3.872 5.551 5.551 0 00-1.183-3.808 3.889 3.889 0 00-5.862 0 5.587 5.587 0 00-1.189 3.84zM376.117 33.691v-2.523a6.5 6.5 0 01-2.421 2.127 6.78 6.78 0 01-3.165.778 6.189 6.189 0 01-3.048-.747 4.4 4.4 0 01-1.951-2.094 9.343 9.343 0 01-.6-3.729V16.839h4.459v7.744a21.624 21.624 0 00.245 4.355 2.382 2.382 0 00.9 1.27 2.756 2.756 0 001.651.468 3.5 3.5 0 002.046-.626 3.19 3.19 0 001.239-1.555 18.154 18.154 0 00.333-4.547v-7.109h4.458v16.852zM384.75 16.839h4.157v2.475a6.238 6.238 0 012.189-2.063 6.038 6.038 0 013.063-.793 6.42 6.42 0 014.983 2.3 9.31 9.31 0 012.047 6.411 9.6 9.6 0 01-2.063 6.561 6.427 6.427 0 01-5 2.341 5.678 5.678 0 01-2.531-.556 8.522 8.522 0 01-2.388-1.9v8.489h-4.458zm4.411 8.14a6.481 6.481 0 001.127 4.2 3.445 3.445 0 002.746 1.357 3.218 3.218 0 002.585-1.246 6.41 6.41 0 001.033-4.086 6.084 6.084 0 00-1.064-3.936 3.291 3.291 0 00-2.63-1.29 3.423 3.423 0 00-2.715 1.26 5.618 5.618 0 00-1.085 3.74z"/></g></svg>